<svg xmlns="http://www.w3.org/2000/svg" width="1792" height="1792" viewBox="0 0 1792 1792"><path d="m 896,78.525597 896,358.400003 0,119.46666 -119.4667,0 q 0,24.26667 -19.1333,42 -19.1333,17.73334 -45.2667,17.73334 l -1424.26663,0 q -26.13334,0 -45.26667,-17.73334 -19.13333,-17.73333 -19.13333,-42 L 0,556.39226 0,436.9256 Z m -657.06667,597.333333 238.93334,0 0,716.80007 119.46666,0 0,-716.80007 238.93334,0 0,716.80007 119.46666,0 0,-716.80007 238.93337,0 0,716.80007 119.4666,0 0,-716.80007 238.9334,0 0,716.80007 55.0666,0 q 26.1334,0 45.2667,17.7333 19.1333,17.7334 19.1333,42 l 0,59.7334 -1553.06663,0 0,-59.7334 q 0,-24.2666 19.13333,-42 19.13333,-17.7333 45.26667,-17.7333 l 55.06666,0 0,-716.80007 z M 1727.6,1571.859 q 26.1333,0 45.2667,17.7333 19.1333,17.7334 19.1333,42 l 0,119.4667 -1792,0 0,-119.4667 q 0,-24.2666 19.13333,-42 Q 38.266667,1571.859 64.4,1571.859 l 1663.2,0 z"/></svg>